<svg width="463" height="621" viewBox="0 0 463 621" fill="none" xmlns="http://www.w3.org/2000/svg">
<path fill-rule="evenodd" clip-rule="evenodd" d="M223.957 0.207332C230.623 -0.218045 239.43 0.0755637 246.095 0.508716C307.551 4.21942 364.989 32.2964 405.696 78.5214C446.24 124.672 466.673 185.125 462.456 246.432C455.03 357.915 362.635 483.316 289.798 564.674C279.079 576.675 268.159 588.5 257.047 600.136C251.702 605.736 243.831 614.133 238.093 619.152C232.564 622.113 227.406 621.569 222.931 617.135C217.157 611.417 211.479 605.384 205.859 599.515C192.223 585.289 178.903 570.761 165.91 555.942C139.317 525.58 114.428 493.766 91.3599 460.648C46.4485 395.961 4.3686 319.617 0.259448 239.376C-2.71148 181.355 20.0167 119.657 58.9721 76.7477C102.765 28.5095 159.474 3.46763 223.957 0.207332ZM230.896 76.4476C227.7 79.2139 202.308 129.914 198.756 136.783L112.165 304.046C105.508 316.812 98.755 329.635 92.2306 342.474C90.9773 344.94 90.1163 348.711 89.8927 351.501C89.5678 355.693 90.2038 359.911 91.7522 363.821C92.6334 365.998 98.431 376.152 99.7183 377.871C103.148 382.456 117.653 410.936 121.435 411.529C125.446 409.823 129.095 400.563 131.16 396.498L143.783 371.744C148.969 361.498 149.953 356.205 162.913 356.63C168.41 356.81 174.925 356.695 180.477 356.699L284.093 356.663C290.721 356.663 301.347 355.824 307.526 357.088C309.226 357.436 310.697 358.483 311.931 359.665C316.304 363.853 330.084 392.718 334.089 400.473C335.626 403.455 336.97 406.895 338.993 409.558C339.757 410.56 340.432 411.284 341.744 411.451C346.043 409.729 356.386 389.503 359.582 384.435C363.456 378.292 367.98 370.819 371.282 364.266C374.31 357.587 374.229 349.82 371.172 343.149C366.623 333.234 361.127 323.172 356.096 313.421L326.411 255.911C296.623 196.918 266.259 138.217 235.323 79.8177C234.08 77.481 233.622 76.7642 230.896 76.4476Z" fill="white"/>
<path d="M230.267 209.875C232.249 209.955 234.816 210.608 235.89 212.442C238.821 217.435 241.432 222.633 244.088 227.772L259.095 256.834L272.92 283.396C274.865 287.186 277.987 292.774 279.369 296.608C278.964 298.868 277.056 299.244 274.939 299.376C270.48 299.653 265.895 299.488 261.416 299.483L233.275 299.453L202.971 299.466C197.582 299.467 190.301 299.802 185.051 298.932C183.798 298.724 183.887 298.418 183.337 297.477C183.149 295.216 190.396 282.113 191.89 279.216L220.022 224.453C221.971 220.655 224.043 216.396 226.23 212.73C227.096 211.273 228.759 210.581 230.267 209.875Z" fill="white"/>
</svg>
